<svg width="213" height="128" xmlns="http://www.w3.org/2000/svg" xmlns:xlink="http://www.w3.org/1999/xlink"><defs><filter x="-21.6%" y="-30.9%" width="143.2%" height="167.1%" filterUnits="objectBoundingBox" id="a"><feMorphology radius="2" operator="dilate" in="SourceAlpha" result="shadowSpreadOuter1"/><feOffset dy="2" in="shadowSpreadOuter1" result="shadowOffsetOuter1"/><feGaussianBlur stdDeviation="7.5" in="shadowOffsetOuter1" result="shadowBlurOuter1"/><feComposite in="shadowBlurOuter1" in2="SourceAlpha" operator="out" result="shadowBlurOuter1"/><feColorMatrix values="0 0 0 0 0 0 0 0 0 0 0 0 0 0 0 0 0 0 0.256965691 0" in="shadowBlurOuter1"/></filter><path d="M77.231 17.71c9.752-5.194 19.342-2.922 28.769 6.818 10.077-5.844 19.342-6.493 27.793-1.948 8.452 4.545 11.865 11.927 10.24 22.145C158.011 47.972 165 56.575 165 70.535c0 13.96-7.964 20.779-23.893 20.454H67.48C53.826 89.366 47 81.249 47 66.639c0-14.609 6.826-21.914 20.48-21.914-3.251-12.815 0-21.82 9.751-27.015z" id="b"/></defs><g transform="translate(1)" fill="none" fill-rule="evenodd"><g transform="translate(44)"><path d="M32.715 0h77.148c3.907 0 5.86 2.606 5.86 7.817 0 7.817-4.395 7.817-8.79 7.817-4.394 0-9.277 0-9.277 7.816 0 7.817 6.348 7.817 9.278 7.817h8.789c6.185.326 9.277 2.769 9.277 7.328 0 6.84-1.465 10.26-5.371 10.26h-9.766c-1.953 1.303-2.93 3.257-2.93 5.863 0 3.908-.976 7.816 5.86 7.816s12.207 0 12.207 6.84-3.418 8.794-9.277 8.794h-8.79c-4.231-.326-6.347 1.303-6.347 4.885 0 5.374 3.418 4.886 6.348 4.886 2.93 0 7.324 1.954 7.324 7.328 0 5.374-.977 7.817-7.324 7.817H94.238c-4.231 0-6.347 1.303-6.347 3.908 0 3.909 2.93 4.886 6.347 4.886 3.418 0 4.883 3.908 4.883 6.84 0 2.93-1.465 6.35-7.324 6.35H32.715c-2.93-.325-4.395-2.442-4.395-6.35 0-3.909 1.953-6.189 5.86-6.84 3.58.977 5.37-.652 5.37-4.886 0-6.35-4.394-5.374-8.788-5.374H16.113c-3.906-1.954-5.86-4.722-5.86-8.305 0-3.583 1.954-5.863 5.86-6.84h6.836c2.93 0 5.371-5.374 5.371-8.305s-2.93-5.863-6.836-5.863H7.324c-2.93 0-7.324-2.931-7.324-9.77 0-6.84 5.371-9.283 7.324-9.283h8.79c4.557.651 6.835-.814 6.835-4.397 0-5.374-1.953-7.328-6.836-7.328h-5.86c-2.929 0-6.835-2.443-6.835-6.351 0-3.909.977-7.329 6.836-7.329H34.18c3.58-.325 5.37-2.442 5.37-6.35 0-5.863-4.882-5.863-6.835-5.863-1.953 0-9.766 0-9.766-7.817C22.95 2.606 26.204 0 32.715 0z" fill="#F8F8F8"/><ellipse fill="#FAFAFA" cx="11.719" cy="7.817" rx="7.813" ry="7.817"/><ellipse fill="#FAFAFA" cx="11.719" cy="120.183" rx="7.813" ry="7.817"/></g><use fill="#000" filter="url(#a)" xlink:href="#b"/><use stroke="#333" stroke-width="4" fill="#FFF" xlink:href="#b"/><circle stroke="#333" stroke-width="4" fill="#FA5474" cx="150.5" cy="87.5" r="23.5"/><g fill="#FFF"><path d="M143.755 75.676l17.57 17.569a2 2 0 010 2.828l-1.252 1.251a2 2 0 01-2.828 0l-17.57-17.569a2 2 0 010-2.828l1.252-1.251a2 2 0 012.828 0z"/><path d="M139.676 93.245l17.569-17.57a2 2 0 012.828 0l1.251 1.252a2 2 0 010 2.828l-17.569 17.57a2 2 0 01-2.828 0l-1.251-1.252a2 2 0 010-2.828z"/></g><g transform="translate(169 12)" fill="#D8D8D8" stroke="#D8D8D8" stroke-width="2"><rect y="11" width="21.488" height="2" rx="1"/><rect x="17.581" y="18" width="20.512" height="2" rx="1"/><rect x="17.581" y="5" width="11.721" height="2" rx="1"/><rect x="25.395" y="11" width="5.86" height="2" rx="1"/><rect x="36.14" y="11" width="5.86" height="2" rx="1"/><rect x="23.442" width="5.86" height="2" rx="1"/><rect x="16.605" y="25" width="5.86" height="2" rx="1"/><rect x="3.907" y="18" width="5.86" height="2" rx="1"/><rect x="13.674" y="18" width="2.93" height="2" rx="1"/></g><g transform="translate(0 26)" fill="#D8D8D8" stroke="#D8D8D8" stroke-width="2"><rect y="11" width="21.488" height="2" rx="1"/><rect x="17.581" y="18" width="20.512" height="2" rx="1"/><rect x="17.581" y="5" width="11.721" height="2" rx="1"/><rect x="25.395" y="11" width="5.86" height="2" rx="1"/><rect x="36.14" y="11" width="5.86" height="2" rx="1"/><rect x="23.442" width="5.86" height="2" rx="1"/><rect x="16.605" y="25" width="5.86" height="2" rx="1"/><rect x="3.907" y="18" width="5.86" height="2" rx="1"/><rect x="13.674" y="18" width="2.93" height="2" rx="1"/></g></g></svg>