<svg version="1.1" id="Capa_1" xmlns="http://www.w3.org/2000/svg" xmlns:xlink="http://www.w3.org/1999/xlink" x="0" y="0" viewBox="0 0 65 92" xml:space="preserve"><style>.st0{clip-path:url(#SVGID_2_)}.st1{fill:#0093ff}.st5{clip-path:url(#SVGID_8_)}</style><defs><path id="SVGID_1_" d="M2 2h60.6v88H2z"/></defs><clipPath id="SVGID_2_"><use xlink:href="#SVGID_1_" overflow="visible"/></clipPath><g class="st0"><path class="st1" d="M33.1 45c-4.8 0-8.7-3.9-8.7-8.7s3.9-8.7 8.7-8.7 8.7 3.9 8.7 8.7-4 8.7-8.7 8.7zm0-13.6c-2.6 0-4.8 2.2-4.8 4.8 0 2.6 2.1 4.8 4.8 4.8s4.8-2.2 4.8-4.8c-.1-2.6-2.2-4.8-4.8-4.8z"/></g><g class="st0"><path class="st1" d="M22.3 58h-3.9c0-5.7 2.5-12.5 14.6-12.5S47.7 51.8 47.7 57h-3.9c0-3.2-1.1-7.5-10.7-7.5S22.3 54 22.3 58z"/></g><g class="st0"><path class="st1" d="M50.9 90H13.7C7.3 90 2 84.7 2 78.3v-57C2 14.8 7.3 9.5 13.7 9.5h37.2c6.5 0 11.7 5.3 11.7 11.7v57c0 6.5-5.2 11.8-11.7 11.8zM13.7 13.4c-4.3 0-7.8 3.5-7.8 7.8v57c0 4.3 3.5 7.8 7.8 7.8h37.2c4.3 0 7.8-3.5 7.8-7.8v-57c0-4.3-3.5-7.8-7.8-7.8H13.7z"/></g><defs><path id="SVGID_3_" d="M26.3 19V4h13.5v15"/></defs><clipPath id="SVGID_4_"><use xlink:href="#SVGID_3_" overflow="visible"/></clipPath><g clip-path="url(#SVGID_4_)"><defs><path id="SVGID_5_" d="M2 2h60.6v88H2z"/></defs><clipPath id="SVGID_6_"><use xlink:href="#SVGID_5_" overflow="visible"/></clipPath><g clip-path="url(#SVGID_6_)"><path fill="#fff" d="M16.6-5.8h33v34.6h-33z"/></g></g><defs><path id="SVGID_7_" d="M2 2h60.6v88H2z"/></defs><clipPath id="SVGID_8_"><use xlink:href="#SVGID_7_" overflow="visible"/></clipPath><g class="st5"><path class="st1" d="M41.7 19h-3.9V5.9h-9.5V19h-3.9V2h17.3z"/></g><g class="st5"><path class="st1" d="M20.4 69.9h22.4v3.9H20.4z"/></g><g class="st5"><path class="st1" d="M20.4 62.8h22.4v3.9H20.4z"/></g><g class="st5"><path class="st1" d="M20.4 17.4h23.9v3.9H20.4z"/></g></svg>