<svg width="221" height="132" xmlns="http://www.w3.org/2000/svg" xmlns:xlink="http://www.w3.org/1999/xlink"><defs><filter x="-12.9%" y="-29.2%" width="125.8%" height="166.7%" filterUnits="objectBoundingBox" id="a"><feOffset dy="2" in="SourceAlpha" result="shadowOffsetOuter1"/><feGaussianBlur stdDeviation="5" in="shadowOffsetOuter1" result="shadowBlurOuter1"/><feColorMatrix values="0 0 0 0 0.544921875 0 0 0 0 0.544921875 0 0 0 0 0.544921875 0 0 0 0.5 0" in="shadowBlurOuter1"/></filter><rect id="b" x="57" y="50" width="124" height="48" rx="7"/></defs><g transform="translate(1)" fill="none" fill-rule="evenodd"><g transform="translate(55)"><path d="M33.5 0h79c4 0 6 2.667 6 8 0 8-4.5 8-9 8s-9.5 0-9.5 8 6.5 8 9.5 8h9c6.333.333 9.5 2.833 9.5 7.5 0 7-1.5 10.5-5.5 10.5h-10c-2 1.333-3 3.333-3 6 0 4-1 8 6 8s12.5 0 12.5 7-3.5 9-9.5 9h-9c-4.333-.333-6.5 1.333-6.5 5 0 5.5 3.5 5 6.5 5s7.5 2 7.5 7.5-1 8-7.5 8h-13c-4.333 0-6.5 1.333-6.5 4 0 4 3 5 6.5 5s5 4 5 7S100 128 94 128H33.5c-3-.333-4.5-2.5-4.5-6.5s2-6.333 6-7c3.667 1 5.5-.667 5.5-5 0-6.5-4.5-5.5-9-5.5h-15c-4-2-6-4.833-6-8.5s2-6 6-7h7c3 0 5.5-5.5 5.5-8.5s-3-6-7-6H7.5C4.5 74 0 71 0 64s5.5-9.5 7.5-9.5h9c4.667.667 7-.833 7-4.5 0-5.5-2-7.5-7-7.5h-6c-3 0-7-2.5-7-6.5s1-7.5 7-7.5H35c3.667-.333 5.5-2.5 5.5-6.5 0-6-5-6-7-6s-10 0-10-8c0-5.333 3.333-8 10-8z" fill="#F8F8F8"/><circle fill="#FAFAFA" cx="12" cy="8" r="8"/><circle fill="#FAFAFA" cx="12" cy="123" r="8"/></g><path stroke="#333" stroke-width="4" fill="#CECCBE" d="M68 98h11v32H68zm90 0h11v32h-11z"/><path stroke="#333" stroke-width="3" fill="#CECCBE" d="M79 111h79v8H79z"/><circle stroke="#333" stroke-width="4" fill="#FA5474" cx="119" cy="26" r="24"/><rect fill="#FFF" x="104" y="23" width="30" height="6" rx="2"/><use fill="#000" filter="url(#a)" xlink:href="#b"/><use fill="#FFF" xlink:href="#b"/><g transform="translate(0 104)" fill="#D8D8D8" stroke="#D8D8D8" stroke-width="2"><rect y="11" width="22" height="2" rx="1"/><rect x="18" y="18" width="21" height="2" rx="1"/><rect x="18" y="5" width="12" height="2" rx="1"/><rect x="26" y="11" width="6" height="2" rx="1"/><rect x="37" y="11" width="6" height="2" rx="1"/><rect x="24" width="6" height="2" rx="1"/><rect x="17" y="25" width="6" height="2" rx="1"/><rect x="4" y="18" width="6" height="2" rx="1"/><rect x="14" y="18" width="3" height="2" rx="1"/></g><g transform="translate(176 2)" fill="#D8D8D8" stroke="#D8D8D8" stroke-width="2"><rect y="11" width="22" height="2" rx="1"/><rect x="18" y="18" width="21" height="2" rx="1"/><rect x="18" y="5" width="12" height="2" rx="1"/><rect x="26" y="11" width="6" height="2" rx="1"/><rect x="37" y="11" width="6" height="2" rx="1"/><rect x="24" width="6" height="2" rx="1"/><rect x="17" y="25" width="6" height="2" rx="1"/><rect x="4" y="18" width="6" height="2" rx="1"/><rect x="14" y="18" width="3" height="2" rx="1"/></g><path d="M75 51L57 82.5V91c1.333 4 3.167 6 5.5 6H71l26-46H75zm47-1L96 96h21l26-46h-21zm45.5-1L141 97h22.5L181 67V54.5c-1-3.667-2.667-5.5-5-5.5h-8.5z" fill="#F9E65C"/><path stroke="#333" stroke-width="2" d="M74.5 50l-13 24M86 72L73 96m58-23l-13 24m50-49l-13 24m-34-21l-5 9m27-10l-5 9"/><path stroke="#333" stroke-width="2" stroke-linecap="round" stroke-linejoin="round" d="M114 63l-3 5"/><path stroke="#333" stroke-width="2" d="M109 72L96 95"/><rect stroke="#333" stroke-width="4" x="59" y="50" width="124" height="48" rx="7"/></g></svg>