<svg width="76" height="86" xmlns="http://www.w3.org/2000/svg"><g transform="translate(2)" fill="none" fill-rule="evenodd"><path d="M67.969 2C70.656 2 72 3.34 72 6.02v25.464c-.896 13.402-7.615 20.55-20.156 21.443C33.03 54.267 29 36.845 29 34.164V6.021C29.896 3.34 31.24 2 33.031 2M8 56c0 8.21 0 17.79 9.406 24.632 9.407 6.842 22.844 1.368 24.188 0C42.937 79.263 51 75.158 51 61.474" stroke="#0093FF" stroke-width="3" stroke-linecap="round"/><circle stroke="#0093FF" stroke-width="3" stroke-linecap="round" cx="8" cy="41" r="8"/><path d="M40.5 0C42.25 0 44 1.4 44 2.8S44 7 40.5 7 37 4.377 37 2.8 38.75 0 40.5 0zm18 0C56.75 0 55 1.4 55 2.8S55 7 58.5 7 62 4.377 62 2.8 60.25 0 58.5 0z" fill="#0093FF"/></g></svg>