<svg version="1.1" id="Capa_1" xmlns="http://www.w3.org/2000/svg" xmlns:xlink="http://www.w3.org/1999/xlink" x="0" y="0" viewBox="0 0 108 94" xml:space="preserve"><style>.st0{clip-path:url(#SVGID_2_)}.st1{fill:#00d065}</style><defs><path id="SVGID_1_" d="M2 1h104.1v92H2z"/></defs><clipPath id="SVGID_2_"><use xlink:href="#SVGID_1_" overflow="visible"/></clipPath><g class="st0"><path class="st1" d="M23.8 90.6c-6.7 0-7.3-4.7-7.3-6.1V56.7c0-1.3 1.1-2.4 2.4-2.4s2.4 1.1 2.4 2.4v27.8c0 .6 0 1.3 2.4 1.3s2.4-.7 2.4-1.3V56.7c0-1.3 1.1-2.4 2.4-2.4s2.4 1.1 2.4 2.4v27.8c.2 1.4-.4 6.1-7.1 6.1z"/></g><g class="st0"><path class="st1" d="M14.1 90.6c-6.7 0-7.3-4.7-7.3-6.1V56.7c0-1.3 1.1-2.4 2.4-2.4s2.4 1.1 2.4 2.4v27.8c0 .6 0 1.3 2.4 1.3s2.4-.7 2.4-1.3V56.7c0-1.3 1.1-2.4 2.4-2.4s2.4 1.1 2.4 2.4v27.8c.2 1.4-.4 6.1-7.1 6.1z"/></g><g class="st0"><path class="st1" d="M100.5 71.2H75V59.3c0-1.3 1.1-2.4 2.4-2.4 1.3 0 2.4 1.1 2.4 2.4v7.1h15.8v-9.5h5.6V32.8c0-3.7-1.4-5.2-5.1-5.2H79.3c-4.1 0-5.1 4.5-5.1 5.2v9.5c0 2.7-6.4 19.5-21.1 19.5-14.6 0-19-8.9-20.9-12.7-2.1-4.3-2.1-10.4-2.1-16.2 0-2.5-.8-3.3-3.2-3.3H10c-2.4 0-3.2.8-3.2 3.3v26.5c0 1.3-1.1 2.4-2.4 2.4S2 60.7 2 59.3V32.8c0-5.2 2.9-8.1 8-8.1h16.9c5.1 0 8 3 8 8.1 0 5.3 0 10.8 1.6 14.1 1.9 3.7 5 10 16.6 10 11.2 0 16.1-13.3 16.3-14.7v-9.4c0-3.4 3-10 9.9-10h16.9c6.3 0 9.9 3.6 9.9 10v28.9h-5.6v9.5z"/></g><g class="st0"><path class="st1" d="M55.3 54.3c-5.3 0-9.7-4.3-9.7-9.7s4.3-9.7 9.7-9.7 9.7 4.3 9.7 9.7-4.4 9.7-9.7 9.7zm0-14.6c-2.7 0-4.8 2.2-4.8 4.8 0 2.7 2.2 4.8 4.8 4.8s4.8-2.2 4.8-4.8c0-2.6-2.2-4.8-4.8-4.8z"/></g><g class="st0"><path class="st1" d="M18.9 20.4c-5.3 0-9.7-4.3-9.7-9.7S13.6 1 18.9 1s9.7 4.3 9.7 9.7-4.3 9.7-9.7 9.7zm0-14.6c-2.7 0-4.8 2.2-4.8 4.8s2.2 4.8 4.8 4.8 4.8-2.2 4.8-4.8-2.1-4.8-4.8-4.8z"/></g><g class="st0"><path class="st1" d="M86.7 20.4c-5.3 0-9.7-4.3-9.7-9.7S81.4 1 86.7 1c5.3 0 9.7 4.3 9.7 9.7s-4.3 9.7-9.7 9.7zm0-14.6c-2.7 0-4.8 2.2-4.8 4.8s2.2 4.8 4.8 4.8 4.8-2.2 4.8-4.8-2.1-4.8-4.8-4.8z"/></g><g class="st0"><path class="st1" d="M92.8 93c-1.3 0-2.4-1.1-2.4-2.4V71.2c0-1.3 1.1-2.4 2.4-2.4 1.3 0 2.4 1.1 2.4 2.4v19.4c0 1.3-1.1 2.4-2.4 2.4z"/></g><g class="st0"><path class="st1" d="M83.1 93c-1.3 0-2.4-1.1-2.4-2.4V71.2c0-1.3 1.1-2.4 2.4-2.4 1.3 0 2.4 1.1 2.4 2.4v19.4c0 1.3-1.1 2.4-2.4 2.4z"/></g><g class="st0"><path class="st1" d="M55.3 78.5c-3.6 0-9.7-1.6-9.7-12.1V64H65v2.4c-.1 10.5-6.1 12.1-9.7 12.1zm-4.7-9.7c.7 4.8 3.3 4.8 4.7 4.8s4 0 4.7-4.8h-9.4z"/></g><g class="st0"><path class="st1" d="M58.9 90.6c-1.3 0-2.4-1.1-2.4-2.4V76.1c0-1.3 1.1-2.4 2.4-2.4s2.4 1.1 2.4 2.4v12.1c0 1.3-1.1 2.4-2.4 2.4z"/></g><g class="st0"><path class="st1" d="M49.2 90.6c-1.3 0-2.4-1.1-2.4-2.4V76.1c0-1.3 1.1-2.4 2.4-2.4s2.4 1.1 2.4 2.4v12.1c0 1.3-1.1 2.4-2.4 2.4z"/></g></svg>