<?xml version="1.0" encoding="UTF-8"?>
<svg width="512px" height="201px" viewBox="0 0 512 201" version="1.1" xmlns="http://www.w3.org/2000/svg" xmlns:xlink="http://www.w3.org/1999/xlink">
    <title>logo_monitor_white</title>
    <g id="Page-1" stroke="none" stroke-width="1" fill="none" fill-rule="evenodd">
        <g id="logo_monitor_white">
            <g id="Group" transform="translate(0.000000, 165.000000)" fill="#FFFFFF">
                <polygon id="Path" fill-rule="nonzero" points="3.4 19.78 14.43 19.78 14.43 21.38 3.4 21.38 3.4 29.21 0.85 29.21 0.85 12.1 14.72 12.1 14.72 13.8 3.4 13.8"></polygon>
                <path d="M44.63,12.1 L44.63,24.43 C44.63,29.01 41.06,29.35 35.68,29.35 C30.7,29.35 26.71,29.27 26.71,24.43 L26.71,12.1 L29.27,12.1 L29.27,24.43 C29.27,27.21 30.15,27.63 35.68,27.63 C40.23,27.63 42.08,27.63 42.08,24.43 L42.08,12.1 L44.63,12.1 Z" id="Path" fill-rule="nonzero"></path>
                <polygon id="Path" fill-rule="nonzero" points="77.46 29.21 73.27 29.21 60.54 13.7 60.49 13.7 60.49 29.21 57.91 29.21 57.91 12.1 62.13 12.1 74.86 27.73 74.89 27.73 74.89 12.1 77.46 12.1"></polygon>
                <path d="M90.51,12.1 L101.55,12.1 C104.29,12.1 109.33,12.39 109.33,18.71 L109.33,22.78 C109.33,24.46 108.97,29.21 102.16,29.21 L90.51,29.21 L90.51,12.1 L90.51,12.1 Z M101.55,27.5 C106.08,27.5 106.67,25.5 106.74,22.44 L106.74,17.95 C106.74,16.99 106.31,13.8 101.95,13.8 L93.07,13.8 L93.07,27.5 L101.55,27.5 L101.55,27.5 Z" id="Shape" fill-rule="nonzero"></path>
                <path d="M124.48,25.57 L122.71,29.21 L120,29.21 L128.28,12.1 L131.89,12.1 L140.35,29.21 L137.67,29.21 L135.91,25.57 L124.48,25.57 Z M130.14,13.7 L125.14,23.98 L135.18,23.98 L130.14,13.7 Z" id="Shape" fill-rule="nonzero"></path>
                <path d="M157.56,29.34 C153.41,29.34 150.97,27.39 150.97,23.98 L150.97,17.37 C150.97,12.51 154.91,11.98 160.42,11.98 L162.52,11.98 C167.28,11.98 168.74,13.53 168.74,16.9 L168.74,17.46 L166.15,17.46 L166.15,16.97 C166.15,14.59 165.5,13.69 162.17,13.69 L160.71,13.69 C155.4,13.69 153.51,14.16 153.51,17.28 L153.51,21.98 C153.51,25.88 153.75,27.62 158.03,27.62 L161.1,27.62 C165.21,27.62 166.48,27.2 166.48,24.77 L166.48,23.39 L169.02,23.39 L169.02,24.98 C169.02,28.91 165.7,29.33 161.17,29.33 L157.56,29.33 L157.56,29.34 L157.56,29.34 Z" id="Path" fill-rule="nonzero"></path>
                <rect id="Rectangle" fill-rule="nonzero" x="180.96" y="12.1" width="2.56" height="17.11"></rect>
                <path d="M206.4,11.98 C212.02,12.01 213.74,13.43 213.74,17.74 L213.74,23.82 C213.74,27.85 211.83,29.35 206.4,29.35 L203.36,29.35 C197.91,29.35 195.97,27.85 195.97,23.82 L195.97,17.74 C195.97,13.43 197.69,12.01 203.36,11.98 L206.4,11.98 Z M203.36,13.69 C199.54,13.69 198.56,14.39 198.56,17.74 L198.56,23.82 C198.56,27.21 200.01,27.63 203.36,27.63 L206.4,27.63 C209.74,27.63 211.2,27.21 211.2,23.82 L211.2,17.74 C211.2,14.39 210.2,13.69 206.4,13.69 L203.36,13.69 Z M207.73,8.37 L202.85,10.65 L202.05,9.71 L206.55,7.15 L207.73,8.37 Z" id="Shape" fill-rule="nonzero"></path>
                <polygon id="Path" fill-rule="nonzero" points="245.68 29.21 241.46 29.21 228.74 13.7 228.69 13.7 228.69 29.21 226.13 29.21 226.13 12.1 230.35 12.1 243.06 27.73 243.1 27.73 243.1 12.1 245.68 12.1"></polygon>
                <path d="M447.23,16.22 C447.66,15.84 448.11,15.41 448.57,15.01 C449.87,13.3 451.45,11.66 452.97,10.16 C453.6,9.54 454.25,8.94 454.9,8.34 C455.76,7.24 456.7,6.25 457.83,5.42 C458.37,4.82 458.94,4.23 459.52,3.62 C460.03,3.23 460.64,2.92 461.1,2.48 C461.56,2.52 461.49,2.46 461.65,2.83 C462.37,4.08 459.3,5.33 458.84,5.99 C458.8,6.02 458.73,6.05 458.73,6.09 C458.8,6.21 458.87,6.28 458.94,6.43 C460.74,6.81 461.92,4.83 462.56,3.61 C462.82,3.09 463.29,2.11 462.78,1.46 C462.37,0.8 461.65,0.53 460.52,0.56 C460.08,0.71 459.62,0.87 459.18,1 C458.09,1.54 457.09,2.23 456.11,2.93 C455.36,3.5 454.73,4.38 454,4.95 C452,6.47 450.08,8.48 448.58,10.48 C448.19,10.83 447.84,11.17 447.47,11.52 C445.94,13.5 443.99,15.17 442.5,17.15 C440.74,19.45 438.71,21.47 436.99,23.79 C436.27,24.5 435.55,25.21 434.84,25.93 C434.03,26.99 432.41,28.85 431.33,29.65 C429.71,30.87 428.13,32.64 425.95,33.25 C423.8,33.84 422.58,31.95 421.97,30.87 C421.76,30.5 421.26,29.68 421.55,29.19 C421.91,28.24 423.62,28.67 424.38,28.07 L424.46,28.07 L424.46,27.85 C421.45,27.06 420.33,27.83 418.73,29.53 C418.73,32.64 421.27,34.52 423.58,35.41 C424.24,35.66 425.46,36.11 426.63,35.84 C428.58,35.4 430.09,34.3 431.47,33.25 C431.96,32.77 432.46,32.27 432.96,31.78 C434.78,30.4 436.51,28.55 437.9,26.72 C438.23,26.41 438.58,26.11 438.9,25.81 C440.52,23.68 442.48,21.87 444.08,19.72 C444.98,18.49 446.28,17.5 447.23,16.22 M379.6,14.21 C380.17,13.61 380.8,13.01 381.39,12.39 C383.04,10.23 385.18,8.47 386.81,6.32 C387.46,5.45 388.01,4.48 388.72,3.61 C388.72,3.27 388.72,3.01 388.59,2.82 C388.43,2.28 388.09,2.14 387.46,2.03 C386.91,2.42 386.22,2.53 385.65,2.93 C385.26,3.23 385.07,3.73 384.76,4.16 C384.14,4.99 383.26,5.66 382.65,6.53 C382.29,6.84 381.95,7.14 381.6,7.43 C379.95,9.63 377.88,11.45 376.19,13.64 C375.51,14.35 374.79,15.06 374.07,15.77 C372.14,18.34 369.66,20.44 367.75,22.98 C367.06,23.68 366.39,24.34 365.73,25.02 C364.19,27.06 362.11,28.69 360.66,30.77 C360.3,31.27 359.61,32.57 360.21,33.25 C360.38,33.7 360.85,33.64 361.21,33.92 C363.26,33.91 364.04,32.31 364.93,31.1 C366.08,29.55 367.48,28.17 368.65,26.6 C370.33,24.39 372.5,22.52 374.17,20.29 C374.47,20.02 374.79,19.75 375.08,19.49 C376.48,17.64 378.18,16.08 379.6,14.21 M460.41,18.16 C460.77,17.82 461.17,17.49 461.52,17.15 C462.85,15.38 464.5,13.94 465.82,12.17 C466.14,11.88 466.5,11.57 466.83,11.28 C467.97,9.76 469.29,8.47 470.42,6.99 C470.99,6.24 472.02,5.69 472.34,4.74 C472.67,4.33 472.56,3.52 472.24,3.15 C472.1,2.94 472.1,2.91 471.81,2.82 C471.66,2.73 471.42,2.71 471.11,2.71 C469.26,4.22 467.49,5.96 466.04,7.9 C465.51,8.37 465,8.87 464.47,9.36 C463.45,10.69 462.23,11.74 461.21,13.08 C460.08,14.21 458.95,15.34 457.84,16.48 C455.45,19.64 452.22,22.09 449.81,25.26 C448.24,27.34 443.47,30.37 443.85,33.6 L443.98,33.6 C444.44,33.97 445.84,34.09 446.44,33.71 C447.09,33.29 447.68,32.32 448.12,31.69 C449.1,30.43 450.45,29.26 451.51,28.09 C453.4,26.07 455.37,24.08 457.02,21.89 C458,20.55 459.38,19.49 460.41,18.16 M311.98,4.63 C311.3,5.05 309.86,4.67 309.04,4.85 C306.67,5.38 304.31,5.62 302.05,6.32 C295.77,8.36 289.53,10.32 283.71,12.74 C280.38,14.12 277.22,15.27 274.36,17.02 C271.08,19.02 266.98,20.9 266.12,25.25 C266.01,25.68 266.26,26.28 266.33,26.6 C267.26,29.82 269.86,30.7 272.78,31.89 C275.61,33.07 278.8,33.61 282.13,34.38 C283.57,34.71 284.96,34.29 286.52,34.6 C288.35,35.01 293.55,34.86 295.3,34.49 L297.32,34.49 C299.19,34.09 301.48,34.32 303.31,33.93 L304.63,33.93 C306.1,33.62 307.96,33.63 309.5,33.49 C310.52,33.53 311.53,33.56 312.55,33.6 C313.13,33.44 313.39,33.01 313.79,32.7 C313.85,31.66 313.66,31.36 313.23,30.67 C311.02,30.09 307.76,30.48 305.43,30.99 C303.76,31.37 302.04,31.1 300.47,31.44 C298.67,31.56 296.86,31.67 295.09,31.77 L292.81,31.77 C291.33,32.09 287.63,32.09 286.17,31.77 C284.56,31.43 282.94,31.8 281.44,31.44 C277.3,30.43 273.43,29.75 270.51,27.61 C269.92,27.18 269.66,26.45 269.15,25.93 C269.12,22.4 273.1,20.88 275.36,19.5 C278.33,17.69 281.74,16.63 285.16,15.23 C289.96,13.23 295.1,11.58 300.15,9.7 C302.64,8.77 305.35,8.34 308.04,7.67 C308.68,7.51 310.45,7.22 310.96,7.56 C311.39,7.6 311.39,7.65 311.62,7.76 C311.62,8.65 311.27,9.2 310.86,9.7 C310.89,9.81 310.95,9.91 310.96,10.03 C313.5,10.56 315.97,8.92 315.940271,6.32 C314.77,5.06 314.35,4.75 311.98,4.63 M467.95,13.19 C467.08,14.02 466.22,14.49 466.25,16.23 C466.71,16.73 466.8,17.27 467.51,17.49 C467.87,17.77 468.62,17.77 468.97,17.49 C469.9,17.18 470.58,15.61 470.54,14.32 C469.8,13.61 469.51,13.16 467.95,13.19 M389.16,19.5 C388.92,18.95 388.46,18.44 388.13,17.93 C387.25,17.92 387.06,18.07 386.59,18.39 C386.53,19.13 386.48,20.16 386.91,20.76 L386.91,20.87 C382.18,21.04 377.84,24.51 375.77,27.41 C374.75,28.77 373.47,31.03 374.87,32.93 C376.2,34.71 380.03,33.72 381.73,33.04 C385.3,31.6 389.44,29.9 390.42,25.94 C390.74,24.65 390.15,23.55 390.09,22.55 C390.47,22.47 390.82,22.41 391.2,22.33 L391.2,22.11 C390.74,21.86 390.15,21.54 389.74,21.2 C389.39,20.76 389.39,20.04 389.16,19.5 M386.91,26.17 C385.95,28.37 381.47,31.05 378.13,31 C377.96,30.82 377.66,30.68 377.46,30.56 C377.46,28.88 378.74,28.24 379.72,27.51 C381.11,26.46 382.55,25.22 384.22,24.47 C385.09,24.07 386.27,24.02 387.05,23.46 L387.26,23.46 C387.25,24.51 387.25,25.4 386.91,26.17 M341.39,22.88 C338.74,20.27 334.49,19.15 329.11,19.28 C328.66,19.58 327.85,19.43 327.31,19.61 C326.79,19.78 326.36,20.15 325.93,20.4 C325.84,20.78 325.59,21.26 325.84,21.65 C326.01,22.2 326.38,22.22 326.74,22.55 C327.92,22.53 328.25,21.98 329.21,21.77 C330.14,21.79 331.07,21.83 332.04,21.88 C334.34,22.42 338.71,23.03 339.35,25.03 L339.46,25.03 C339.43,25.13 339.39,25.26 339.35,25.37 C338.39,25.29 337.54,24.96 336.75,24.69 C335.3,24.22 333.72,24.04 332.25,23.69 C331.61,23.64 331,23.6 330.36,23.58 C325.93,22.58 321.43,24.56 319.86,26.94 C319.36,27.72 318.18,29.88 318.53,31.35 C318.88,32.97 320.04,33.54 321.65,33.93 L323.11,33.93 C324.62,34.25 327.2,33.79 328.65,33.49 C329.28,33.44 329.92,33.4 330.56,33.37 C332.81,32.86 335.37,32.67 337.53,32.13 C339.23,31.7 341.24,32.24 342.39,31.58 C342.84,30.45 342.21,29.94 341.71,29.21 C340.01,28.85 338.19,29.02 336.53,29.44 C335.2,29.62 333.9,29.81 332.58,29.99 C329.55,30.77 325.08,31.79 321.88,30.78 C320.68,24.75 331.58,25.87 335.5,27.07 C336.39,27.34 337.18,27.52 338,27.73 C339.4,28.14 341.93,28.18 342.61,27.17 C343.84,25.4 342.22,23.7 341.39,22.88 M510.57,21.77 C509.38,20.05 506.78,20.11 504.59,20.86 C501.43,21.91 498.51,23.43 495.9,25.02 C494.48,25.89 492.84,26.49 491.72,27.62 L491.59,27.62 C492.12,25.57 493.62,22.54 492.51,20.3 C490.51,19.94 488.83,20.72 487.46,21.3 C484.45,22.57 481.71,23.79 479.11,25.36 C477.86,26.13 476.24,26.52 475.17,27.5 L474.85,27.5 C475.45,26.31 476.64,25.5 477.42,24.46 C477.92,23.79 478.14,23.02 478.64,22.33 C478.57,21.77 478.39,21.5 478.2,21.08 C476.2,20.55 475.17,21.05 473.7,21.98 C473.74,22.05 473.77,22.14 473.82,22.2 C474.13,22.33 474.27,22.41 474.7,22.44 L474.7,22.77 C472.66,24.68 471.19,27.31 469.18,29.32 C468.13,30.37 466.71,31.01 466.71,33.14 C466.85,33.27 466.95,33.42 467.07,33.6 C468.75,34.25 471.62,32.91 472.92,32.25 C478.21,29.47 483.51,26.68 488.79,23.92 L489.27,23.92 C488.29,26.44 487.92,29.66 486.22,31.46 C486.22,32.14 486.26,32.76 486.54,33.15 C486.69,33.3 486.83,33.44 487.02,33.61 C489.22,33.5 490.76,31.97 492.19,31.01 C495.1,29.07 497.93,27.18 501.09,25.5 C501.92,25.04 505.82,23.1 507.08,24.03 C510.21,24.64 507.72,30.7 507.17,32.26 C506.96,32.92 507.17,33.29 507.41,33.72 C507.66,33.77 507.82,33.81 507.98,33.9401286 C512.19,33.98 512.53,24.68 510.57,21.77 M405.83,20.4 C405.37,20.75 404.61,20.73 404.04,20.97 C402.57,21.61 400.92,23.02 400.09,24.35 C398.76,26.47 398.76,29.83 396.95,31.45 C395.11,31.31 393.87,30.01 392.9,28.98 C392.52,29 392.31,29.03 392.09,29.19 C391.87,29.36 391.85,29.33 391.76,29.65 C391.5,30 391.63,30.26 391.65,30.77 C392.56,31.68 393.15,32.72 394.35,33.36 C394.75,33.59 395.35,33.81 395.84,33.92 C396.73,34.17 397.75,33.78 398.31,33.59 C402.4,32.1 400.64,27.22 403.27,24.56 C403.81,24.05 406.31,22.13 407.43,22.77 C407.71,22.86 407.71,22.88 407.89,22.98 C407.87,23.73 407.38,24.46 407.67,24.89 L407.67,25.12 C408.13,25.23 408.56,25.3 408.89,25.02 C409.84,24.72 410.45,22.88 409.82,21.77 C409.12,20.62 407.73,20.32 405.83,20.4 M363.47,22.55 C363.79,22.42 363.99,21.98 363.79,21.65 C363.56,20.91 362.81,20.7 361.75,20.76 C361.36,21.05 360.71,20.92 360.21,21.09 C359.06,21.47 356.52,22.26 355.69,22.99 L355.46,22.99 C355.55,22.45 355.69,21.73 355.35,21.31 C355.19,21.09 355.21,21.08 354.9,20.98 C354.47,20.7 353.13,20.83 352.64,20.98 C351.39,21.37 347.35,22.75 346.91,23.69 C346.8,23.8 346.85,23.71 346.8,23.92 C346.91,24.02 346.94,24.11 347.02,24.25 C347.7,24.36 350.68,23.74 351.28,23.34 C351.96,23.34 352.07,23.45 352.44,23.69 C352.39,26.26 349.24,28.66 347.8,30.1 C347,30.92 346.12,31.29 346.12,32.93 C346.34,33.18 346.56,33.44 346.8,33.71 C349.38,34.31 350.29,32.29 351.42,30.78 C353.23,28.3 355.51,25.7 358.16,24.02 C359.2,23.38 360.3,22.86 361.67,22.55 L363.47,22.55 L363.47,22.55 Z M467.07,20.97 C466.64,20.86 466.5,20.76 465.91,20.75 C462.83,23.38 460.12,26.54 457.25,29.43 C456.43,30.23 454.71,31.63 455.79,33.26 C456.82,34.8 458.4,33.21 459.17,32.46 C461.13,30.54 463.02,28.36 464.68,26.17 C465.42,25.17 466.88,24.36 467.28,23.11 C467.7,22.47 467.21,21.46 467.07,20.97" id="Shape"></path>
            </g>
            <g id="Group" transform="translate(0.000000, 130.000000)" fill="#FFFFFF" fill-rule="nonzero">
                <rect id="Rectangle" x="0.85" y="0.67" width="3.5" height="5"></rect>
                <path d="M501.12,5.67 L494.02,5.67 L494.02,0.67 L501.12,0.67 L501.12,5.67 Z M486.93,5.67 L479.83,5.67 L479.83,0.67 L486.93,0.67 L486.93,5.67 Z M472.74,5.67 L465.64,5.67 L465.64,0.67 L472.74,0.67 L472.74,5.67 Z M458.54,5.67 L451.44,5.67 L451.44,0.67 L458.54,0.67 L458.54,5.67 Z M444.35,5.67 L437.25,5.67 L437.25,0.67 L444.35,0.67 L444.35,5.67 Z M430.16,5.67 L423.06,5.67 L423.06,0.67 L430.16,0.67 L430.16,5.67 Z M415.96,5.67 L408.86,5.67 L408.86,0.67 L415.96,0.67 L415.96,5.67 Z M401.77,5.67 L394.67,5.67 L394.67,0.67 L401.77,0.67 L401.77,5.67 Z M387.58,5.67 L380.48,5.67 L380.48,0.67 L387.58,0.67 L387.58,5.67 Z M373.38,5.67 L366.28,5.67 L366.28,0.67 L373.38,0.67 L373.38,5.67 Z M359.19,5.67 L352.09,5.67 L352.09,0.67 L359.19,0.67 L359.19,5.67 Z M345,5.67 L337.9,5.67 L337.9,0.67 L345,0.67 L345,5.67 Z M330.8,5.67 L323.7,5.67 L323.7,0.67 L330.8,0.67 L330.8,5.67 Z M316.61,5.67 L309.51,5.67 L309.51,0.67 L316.61,0.67 L316.61,5.67 Z M302.42,5.67 L295.32,5.67 L295.32,0.67 L302.42,0.67 L302.42,5.67 Z M288.22,5.67 L281.12,5.67 L281.12,0.67 L288.22,0.67 L288.22,5.67 Z M274.03,5.67 L266.93,5.67 L266.93,0.67 L274.03,0.67 L274.03,5.67 Z M259.83,5.67 L252.73,5.67 L252.73,0.67 L259.83,0.67 L259.83,5.67 Z M245.64,5.67 L238.54,5.67 L238.54,0.67 L245.64,0.67 L245.64,5.67 Z M231.45,5.67 L224.35,5.67 L224.35,0.67 L231.45,0.67 L231.45,5.67 Z M217.25,5.67 L210.15,5.67 L210.15,0.67 L217.25,0.67 L217.25,5.67 Z M203.06,5.67 L195.96,5.67 L195.96,0.67 L203.06,0.67 L203.06,5.67 Z M188.87,5.67 L181.77,5.67 L181.77,0.67 L188.87,0.67 L188.87,5.67 Z M174.67,5.67 L167.57,5.67 L167.57,0.67 L174.67,0.67 L174.67,5.67 Z M160.48,5.67 L153.38,5.67 L153.38,0.67 L160.48,0.67 L160.48,5.67 Z M146.29,5.67 L139.19,5.67 L139.19,0.67 L146.29,0.67 L146.29,5.67 Z M132.09,5.67 L125,5.67 L125,0.67 L132.1,0.67 L132.1,5.67 L132.09,5.67 Z M117.9,5.67 L110.8,5.67 L110.8,0.67 L117.9,0.67 L117.9,5.67 Z M103.71,5.67 L96.61,5.67 L96.61,0.67 L103.71,0.67 L103.71,5.67 Z M89.51,5.67 L82.41,5.67 L82.41,0.67 L89.51,0.67 L89.51,5.67 Z M75.32,5.67 L68.22,5.67 L68.22,0.67 L75.32,0.67 L75.32,5.67 Z M61.13,5.67 L54.03,5.67 L54.03,0.67 L61.13,0.67 L61.13,5.67 Z M46.93,5.67 L39.83,5.67 L39.83,0.67 L46.93,0.67 L46.93,5.67 Z M32.74,5.67 L25.64,5.67 L25.64,0.67 L32.74,0.67 L32.74,5.67 Z M18.55,5.67 L11.45,5.67 L11.45,0.67 L18.55,0.67 L18.55,5.67 Z" id="Shape"></path>
                <rect id="Rectangle" x="508.22" y="0.67" width="3.5" height="5"></rect>
            </g>
            <polygon id="Path" fill="#FFFFFF" fill-rule="nonzero" points="0.85 15.75 14.14 15.75 39.65 74.75 39.86 74.75 65.59 15.75 78.56 15.75 78.56 91.01 69.63 91.01 69.63 27.86 69.42 27.86 42.42 91.01 37 91.01 10 27.86 9.79 27.86 9.79 91.01 0.86 91.01 0.86 15.75"></polygon>
            <path d="M132.24,92.92 C126.5,92.92 121.24,91.93 116.45,89.94 C111.67,87.96 107.52,85.21 104.01,81.7 C100.5,78.19 97.77,74.01 95.82,69.16 C93.87,64.31 92.9,59.04 92.9,53.37 C92.9,47.7 93.87,42.44 95.82,37.58 C97.77,32.73 100.5,28.54 104.01,25.04 C107.52,21.53 111.66,18.79 116.45,16.8 C121.23,14.82 126.5,13.82 132.24,13.82 C137.98,13.82 143.24,14.81 148.03,16.8 C152.81,18.79 156.96,21.53 160.47,25.04 C163.98,28.55 166.71,32.73 168.66,37.58 C170.61,42.43 171.58,47.7 171.58,53.37 C171.58,59.04 170.61,64.3 168.66,69.16 C166.71,74.02 163.98,78.2 160.47,81.7 C156.96,85.21 152.82,87.96 148.03,89.94 C143.25,91.93 137.98,92.92 132.24,92.92 Z M132.24,84.63 C136.63,84.63 140.65,83.82 144.31,82.19 C147.96,80.56 151.1,78.33 153.72,75.49 C156.34,72.66 158.38,69.34 159.83,65.55 C161.28,61.76 162.01,57.7 162.01,53.38 C162.01,49.06 161.28,45 159.83,41.21 C158.38,37.42 156.34,34.11 153.72,31.27 C151.1,28.44 147.96,26.2 144.31,24.57 C140.66,22.94 136.64,22.13 132.24,22.13 C127.84,22.13 123.82,22.95 120.17,24.57 C116.52,26.2 113.38,28.43 110.76,31.27 C108.14,34.11 106.1,37.42 104.65,41.21 C103.2,45 102.47,49.06 102.47,53.38 C102.47,57.7 103.2,61.76 104.65,65.55 C106.1,69.34 108.14,72.66 110.76,75.49 C113.38,78.33 116.52,80.56 120.17,82.19 C123.83,83.82 127.85,84.63 132.24,84.63 Z" id="Shape" fill="#FFFFFF" fill-rule="nonzero"></path>
            <polygon id="Path" fill="#FFFFFF" fill-rule="nonzero" points="185.93 15.75 197.2 15.75 240.79 78.26 241 78.26 241 15.75 249.93 15.75 249.93 91.01 238.66 91.01 195.07 28.5 194.86 28.5 194.86 91.01 185.93 91.01 185.93 15.75"></polygon>
            <polygon id="Path" fill="#FFFFFF" fill-rule="nonzero" points="268.63 15.75 277.56 15.75 277.56 91.01 268.63 91.01"></polygon>
            <polygon id="Path" fill="#FFFFFF" fill-rule="nonzero" points="346.77 24.04 321.89 24.04 321.89 91.01 312.96 91.01 312.96 24.04 288.09 24.04 288.09 15.75 346.77 15.75"></polygon>
            <path d="M459.95,15.75 L479.19,15.75 C482.8,15.75 486.4,15.96 489.98,16.39 C493.56,16.81 496.77,17.74 499.6,19.15 C502.43,20.57 504.74,22.64 506.51,25.37 C508.28,28.1 509.17,31.8 509.17,36.48 C509.17,42.01 507.5,46.47 504.17,49.87 C500.84,53.27 496.23,55.43 490.35,56.35 L511.72,91.01 L500.77,91.01 L480.36,57.2 L468.88,57.2 L468.88,91.01 L459.95,91.01 L459.95,15.75 L459.95,15.75 Z M468.88,48.91 L476.85,48.91 C479.33,48.91 481.9,48.84 484.56,48.7 C487.22,48.56 489.66,48.1 491.9,47.32 C494.13,46.54 495.97,45.32 497.43,43.65 C498.88,41.99 499.61,39.59 499.61,36.47 C499.61,33.78 499.08,31.62 498.02,29.99 C496.96,28.36 495.56,27.1 493.82,26.22 C492.08,25.33 490.13,24.75 487.97,24.47 C485.81,24.19 483.63,24.04 481.43,24.04 L468.89,24.04 L468.89,48.91 L468.88,48.91 Z" id="Shape" fill="#FFFFFF" fill-rule="nonzero"></path>
            <g id="Group" transform="translate(348.000000, 4.000000)" fill-rule="nonzero">
                <path d="M84.05,87.44 L84.03,87.44 C80.6,90.46 76.79,93.06 72.68,95.06 L72.68,95.08 L98.42,133.42 C100.48,136.48 104.91,137.35 107.95,135.29 C110.63,133.49 112.22,129.35 109.82,125.76 L84.05,87.44 Z" id="Path" fill="#00A0CF"></path>
                <path d="M115.84,121.7 L89.23,82.05 C94.39,75.85 98.13,68.3 99.8,59.84 C105.12,32.79 87.43,6.45 60.39,1.14 C33.36,-4.18 7.03,13.5 1.71,40.53 C-3.61,67.56 14.07,93.89 41.1,99.21 C49.56,100.87 57.96,100.27 65.66,97.84 L92.27,137.49 C94.46,141.42 103.04,147.36 111.95,141.36 C120.33,135.8 118.95,125.81 115.84,121.7 Z M107.9,135.3 C104.84,137.36 100.4,136.48 98.37,133.43 L72.65,95.09 L72.65,95.07 C76.75,93.04 80.59,90.5 84,87.45 L84.02,87.45 L109.76,125.79 C112.16,129.37 110.6,133.51 107.9,135.3 Z M92.62,58.41 C88.08,81.5 65.61,96.57 42.54,92.03 C19.43,87.51 4.36,65.03 8.9,41.95 C13.44,18.86 35.89,3.79 58.98,8.33 C82.06,12.86 97.15,35.34 92.62,58.41 Z" id="Shape" fill="#004B7E"></path>
                <path d="M83.41,78.03 C68.02,96 40.97,98.08 23.01,82.69 L78.75,17.62 C96.71,33.02 98.8,60.06 83.41,78.03 Z" id="Path" fill="#EDB631" opacity="0.85"></path>
                <path d="M18.41,22.47 C33.8,4.5 60.85,2.42 78.81,17.81 L23.07,82.88 C5.1,67.48 3.01,40.44 18.41,22.47 Z" id="Path" fill="#FBDEAB" opacity="0.85"></path>
                <g transform="translate(17.000000, 12.000000)" id="Path">
                    <g transform="translate(0.000000, 11.000000)">
                        <path d="M29.99,27.38 C29.24,28.26 27.92,28.36 27.04,27.61 L19.91,21.51 L20.63,30.87 C20.72,32.01 19.86,33.02 18.71,33.11 C18.13,33.15 17.6,32.96 17.19,32.61 C16.79,32.26 16.51,31.76 16.47,31.19 L15.75,21.83 L9.65,28.96 C8.93,29.8 7.67,29.93 6.8,29.26 C6.76,29.24 6.74,29.21 6.71,29.19 C5.84,28.44 5.73,27.12 6.48,26.24 L12.58,19.11 L3.23,19.84 C2.65,19.88 2.12,19.69 1.71,19.34 C1.31,18.99 1.03,18.49 0.99,17.92 C0.9,16.77 1.76,15.76 2.91,15.68 L12.26,14.95 L5.14,8.85 C4.26,8.1 4.16,6.78 4.91,5.9 C5.66,5.03 6.98,4.92 7.86,5.67 L14.98,11.77 L14.26,2.42 C14.17,1.27 15.03,0.27 16.18,0.18 C17.33,0.09 18.33,0.95 18.42,2.1 L19.14,11.45 L25.24,4.33 C25.99,3.45 27.31,3.35 28.19,4.1 C28.22,4.13 28.25,4.15 28.28,4.18 C29.08,4.94 29.15,6.2 28.42,7.04 L22.32,14.16 L31.68,13.44 C32.83,13.35 33.83,14.21 33.92,15.36 C34,16.51 33.15,17.51 32,17.6 L22.64,18.32 L29.77,24.42 C30.64,25.18 30.74,26.5 29.99,27.38 Z" fill="#008988"></path>
                        <path d="M29.99,27.38 C29.24,28.26 27.92,28.36 27.04,27.61 L19.91,21.51 L20.63,30.87 C20.72,32.01 19.86,33.02 18.71,33.11 C18.13,33.15 17.6,32.96 17.19,32.61 C16.79,32.26 16.51,31.76 16.47,31.19 L15.75,21.83 L9.65,28.96 C8.93,29.8 7.67,29.93 6.8,29.26 L28.28,4.19 C29.08,4.95 29.15,6.21 28.42,7.05 L22.32,14.17 L31.68,13.45 C32.83,13.36 33.83,14.22 33.92,15.37 C34,16.52 33.15,17.52 32,17.61 L22.64,18.33 L29.77,24.43 C30.64,25.18 30.74,26.5 29.99,27.38 L29.99,27.38 Z" fill="#007976"></path>
                        <path d="M25.17,23.25 C21.57,27.45 15.25,27.94 11.06,24.34 L11.03,24.32 C6.86,20.72 6.38,14.42 9.97,10.23 C13.56,6.04 19.86,5.55 24.05,9.12 L24.08,9.14 C28.27,12.73 28.76,19.05 25.17,23.25 L25.17,23.25 Z" fill="#009B6C"></path>
                        <path d="M25.17,23.25 C21.57,27.45 15.25,27.94 11.06,24.34 L11.03,24.32 L24.05,9.12 L24.08,9.14 C28.27,12.73 28.76,19.05 25.17,23.25 L25.17,23.25 Z" fill="#008988"></path>
                        <path d="M21.38,20 C19.57,22.11 16.41,22.35 14.3,20.55 L14.27,20.53 C12.19,18.73 11.95,15.57 13.75,13.48 C15.54,11.39 18.7,11.13 20.8,12.91 L20.83,12.93 C22.93,14.72 23.18,17.9 21.38,20 L21.38,20 Z" fill="#52A92B"></path>
                        <path d="M21.38,20 C19.57,22.11 16.41,22.35 14.3,20.55 L14.27,20.53 L20.8,12.91 L20.83,12.93 C22.93,14.72 23.18,17.9 21.38,20 Z" fill="#009B6C"></path>
                    </g>
                    <g transform="translate(38.000000, 19.000000)">
                        <path d="M29.9,28.1 C29.15,28.98 27.83,29.08 26.95,28.33 L19.82,22.23 L20.54,31.59 C20.63,32.73 19.77,33.74 18.62,33.83 C18.04,33.87 17.51,33.68 17.1,33.33 C16.7,32.98 16.42,32.48 16.38,31.91 L15.66,22.55 L9.56,29.68 C8.84,30.52 7.58,30.65 6.71,29.98 C6.67,29.96 6.65,29.93 6.62,29.91 C5.75,29.16 5.64,27.84 6.39,26.96 L12.49,19.83 L3.14,20.56 C2.56,20.6 2.03,20.41 1.62,20.06 C1.22,19.71 0.94,19.21 0.9,18.64 C0.81,17.49 1.67,16.48 2.82,16.4 L12.17,15.67 L5.05,9.57 C4.17,8.82 4.07,7.5 4.82,6.62 C5.57,5.75 6.89,5.64 7.77,6.39 L14.89,12.49 L14.17,3.14 C14.08,1.99 14.94,0.99 16.09,0.9 C17.24,0.81 18.24,1.67 18.33,2.82 L19.05,12.17 L25.15,5.05 C25.9,4.17 27.22,4.07 28.1,4.82 C28.13,4.85 28.16,4.87 28.19,4.9 C28.99,5.66 29.06,6.92 28.33,7.76 L22.23,14.88 L31.59,14.16 C32.74,14.07 33.74,14.93 33.83,16.08 C33.91,17.23 33.06,18.23 31.91,18.32 L22.55,19.04 L29.68,25.14 C30.55,25.91 30.65,27.23 29.9,28.1 L29.9,28.1 Z" fill="#008988"></path>
                        <path d="M29.9,28.1 C29.15,28.98 27.83,29.08 26.95,28.33 L19.82,22.23 L20.54,31.59 C20.63,32.73 19.77,33.74 18.62,33.83 C18.04,33.87 17.51,33.68 17.1,33.33 C16.7,32.98 16.42,32.48 16.38,31.91 L15.66,22.55 L9.56,29.68 C8.84,30.52 7.58,30.65 6.71,29.98 L28.19,4.91 C28.99,5.67 29.06,6.93 28.33,7.77 L22.23,14.89 L31.59,14.17 C32.74,14.08 33.74,14.94 33.83,16.09 C33.91,17.24 33.06,18.24 31.91,18.33 L22.55,19.05 L29.68,25.15 C30.55,25.91 30.65,27.23 29.9,28.1 Z" fill="#007976"></path>
                        <path d="M25.08,23.97 C21.48,28.17 15.16,28.66 10.97,25.06 L10.94,25.04 C6.77,21.44 6.29,15.14 9.88,10.95 C13.47,6.76 19.77,6.27 23.96,9.84 L23.99,9.86 C28.18,13.46 28.67,19.77 25.08,23.97 L25.08,23.97 Z" fill="#009B6C"></path>
                        <path d="M25.08,23.97 C21.48,28.17 15.16,28.66 10.97,25.06 L10.94,25.04 L23.96,9.84 L23.99,9.86 C28.18,13.46 28.67,19.77 25.08,23.97 L25.08,23.97 Z" fill="#008988"></path>
                        <path d="M21.29,20.72 C19.48,22.83 16.32,23.07 14.21,21.27 L14.18,21.25 C12.1,19.45 11.86,16.29 13.66,14.2 C15.45,12.11 18.61,11.85 20.71,13.63 L20.74,13.65 C22.84,15.45 23.09,18.62 21.29,20.72 Z" fill="#52A92B"></path>
                        <path d="M21.29,20.72 C19.48,22.83 16.32,23.07 14.21,21.27 L14.18,21.25 L20.71,13.63 L20.74,13.65 C22.84,15.45 23.09,18.62 21.29,20.72 Z" fill="#009B6C"></path>
                    </g>
                    <g transform="translate(28.000000, 47.000000)">
                        <path d="M25.13,23.76 C24.48,24.51 23.35,24.6 22.6,23.95 L16.49,18.71 L17.11,26.74 C17.19,27.72 16.45,28.58 15.46,28.66 C14.97,28.69 14.51,28.53 14.16,28.23 C13.81,27.93 13.58,27.5 13.54,27.01 L12.92,18.98 L7.68,25.09 C7.06,25.81 5.98,25.92 5.23,25.35 C5.2,25.33 5.18,25.31 5.15,25.29 C4.4,24.65 4.31,23.51 4.96,22.76 L10.2,16.65 L2.18,17.27 C1.69,17.3 1.23,17.14 0.88,16.84 C0.53,16.54 0.3,16.11 0.26,15.62 C0.18,14.63 0.92,13.77 1.91,13.7 L9.93,13.08 L3.82,7.85 C3.07,7.2 2.98,6.08 3.63,5.32 C4.27,4.57 5.4,4.48 6.16,5.13 L12.27,10.36 L11.65,2.34 C11.57,1.35 12.31,0.49 13.3,0.42 C14.29,0.34 15.15,1.08 15.22,2.07 L15.84,10.09 L21.07,3.98 C21.72,3.23 22.85,3.14 23.6,3.79 C23.63,3.81 23.65,3.83 23.67,3.86 C24.35,4.51 24.41,5.59 23.79,6.32 L18.56,12.43 L26.58,11.81 C27.56,11.73 28.43,12.47 28.5,13.46 C28.57,14.45 27.84,15.3 26.85,15.38 L18.83,16 L24.94,21.24 C25.69,21.87 25.78,23.01 25.13,23.76 Z" fill="#008988"></path>
                        <path d="M25.13,23.76 C24.48,24.51 23.35,24.6 22.6,23.95 L16.49,18.71 L17.11,26.74 C17.19,27.72 16.45,28.58 15.46,28.66 C14.97,28.69 14.51,28.53 14.16,28.23 C13.81,27.93 13.58,27.5 13.54,27.01 L12.92,18.98 L7.68,25.09 C7.06,25.81 5.98,25.92 5.23,25.35 L23.65,3.85 C24.33,4.5 24.39,5.58 23.77,6.31 L18.54,12.42 L26.56,11.8 C27.54,11.72 28.41,12.46 28.48,13.45 C28.55,14.44 27.82,15.29 26.83,15.37 L18.81,15.99 L24.92,21.23 C25.69,21.87 25.78,23.01 25.13,23.76 L25.13,23.76 Z" fill="#007976"></path>
                        <path d="M21,20.21 C17.92,23.81 12.5,24.23 8.89,21.14 L8.87,21.12 C5.29,18.03 4.88,12.63 7.96,9.03 C11.04,5.44 16.44,5.02 20.04,8.08 L20.06,8.1 C23.66,11.2 24.08,16.61 21,20.21 Z" fill="#009B6C"></path>
                        <path d="M21,20.21 C17.92,23.81 12.5,24.23 8.89,21.14 L8.87,21.12 L20.04,8.08 L20.06,8.1 C23.66,11.2 24.08,16.61 21,20.21 Z" fill="#008988"></path>
                        <path d="M17.75,17.43 C16.2,19.24 13.48,19.44 11.68,17.9 L11.66,17.88 C9.88,16.33 9.67,13.63 11.21,11.83 C12.75,10.03 15.45,9.82 17.26,11.34 L17.28,11.36 C19.08,12.9 19.29,15.62 17.75,17.43 Z" fill="#52A92B"></path>
                        <path d="M17.75,17.43 C16.2,19.24 13.48,19.44 11.68,17.9 L11.66,17.88 L17.26,11.34 L17.28,11.36 C19.08,12.9 19.29,15.62 17.75,17.43 Z" fill="#009B6C"></path>
                    </g>
                    <g transform="translate(5.000000, 45.000000)">
                        <path d="M19.77,18.08 C19.28,18.65 18.42,18.72 17.84,18.23 L13.18,14.24 L13.65,20.36 C13.71,21.11 13.14,21.77 12.39,21.83 C12.01,21.86 11.66,21.73 11.4,21.5 C11.14,21.27 10.96,20.94 10.93,20.57 L10.46,14.45 L6.47,19.11 C6,19.66 5.18,19.74 4.61,19.31 C4.59,19.3 4.57,19.28 4.55,19.26 C3.98,18.77 3.91,17.91 4.4,17.33 L8.39,12.67 L2.28,13.14 C1.9,13.17 1.55,13.04 1.29,12.81 C1.03,12.58 0.85,12.25 0.82,11.88 C0.76,11.13 1.33,10.47 2.08,10.41 L8.19,9.94 L3.54,5.95 C2.97,5.46 2.9,4.6 3.39,4.02 C3.88,3.45 4.74,3.38 5.32,3.87 L9.97,7.86 L9.5,1.75 C9.44,1 10,0.34 10.76,0.28 C11.51,0.22 12.17,0.78 12.23,1.54 L12.7,7.65 L16.69,3 C17.18,2.43 18.04,2.36 18.62,2.85 C18.64,2.87 18.66,2.88 18.68,2.9 C19.2,3.4 19.25,4.22 18.77,4.77 L14.78,9.42 L20.89,8.95 C21.64,8.89 22.3,9.45 22.36,10.21 C22.42,10.96 21.85,11.62 21.1,11.68 L14.99,12.15 L19.65,16.14 C20.19,16.65 20.26,17.51 19.77,18.08 L19.77,18.08 Z" fill="#008988"></path>
                        <path d="M19.77,18.08 C19.28,18.65 18.42,18.72 17.84,18.23 L13.18,14.24 L13.65,20.36 C13.71,21.11 13.14,21.77 12.39,21.83 C12.01,21.86 11.66,21.73 11.4,21.5 C11.14,21.27 10.96,20.94 10.93,20.57 L10.46,14.45 L6.47,19.11 C6,19.66 5.18,19.74 4.61,19.31 L18.65,2.93 C19.17,3.43 19.22,4.25 18.74,4.8 L14.75,9.45 L20.86,8.98 C21.61,8.92 22.27,9.48 22.33,10.24 C22.39,10.99 21.82,11.65 21.07,11.71 L14.96,12.18 L19.62,16.17 C20.19,16.65 20.26,17.51 19.77,18.08 L19.77,18.08 Z" fill="#007976"></path>
                        <path d="M16.62,15.38 C14.27,18.12 10.14,18.44 7.4,16.09 L7.38,16.07 C4.65,13.72 4.34,9.6 6.69,6.86 C9.03,4.12 13.15,3.8 15.89,6.14 L15.91,6.16 C18.65,8.51 18.97,12.64 16.62,15.38 Z" fill="#009B6C"></path>
                        <path d="M16.62,15.38 C14.27,18.12 10.14,18.44 7.4,16.09 L7.38,16.07 L15.89,6.14 L15.91,6.16 C18.65,8.51 18.97,12.64 16.62,15.38 L16.62,15.38 Z" fill="#008988"></path>
                        <path d="M14.14,13.26 C12.96,14.64 10.89,14.79 9.51,13.62 L9.49,13.6 C8.13,12.42 7.98,10.36 9.15,8.99 C10.32,7.62 12.38,7.46 13.76,8.62 L13.78,8.64 C15.16,9.81 15.32,11.88 14.14,13.26 Z" fill="#52A92B"></path>
                        <path d="M14.14,13.26 C12.96,14.64 10.89,14.79 9.51,13.62 L9.49,13.6 L13.76,8.62 L13.78,8.64 C15.16,9.81 15.32,11.88 14.14,13.26 L14.14,13.26 Z" fill="#009B6C"></path>
                    </g>
                    <g transform="translate(29.000000, 0.000000)">
                        <path d="M21.37,20.23 C20.83,20.87 19.87,20.94 19.24,20.39 L14.09,15.98 L14.61,22.75 C14.67,23.58 14.05,24.31 13.22,24.37 C12.8,24.4 12.42,24.26 12.12,24.01 C11.83,23.76 11.63,23.4 11.6,22.98 L11.08,16.21 L6.67,21.36 C6.15,21.97 5.24,22.06 4.61,21.58 C4.58,21.56 4.56,21.55 4.54,21.53 C3.91,20.99 3.83,20.03 4.38,19.4 L8.79,14.25 L2.03,14.78 C1.61,14.81 1.23,14.67 0.93,14.42 C0.64,14.17 0.44,13.81 0.41,13.39 C0.35,12.56 0.97,11.83 1.8,11.77 L8.56,11.24 L3.41,6.83 C2.77,6.29 2.7,5.34 3.25,4.7 C3.79,4.07 4.74,3.99 5.38,4.54 L10.53,8.95 L10.01,2.19 C9.95,1.36 10.57,0.63 11.4,0.57 C12.23,0.51 12.96,1.13 13.02,1.96 L13.54,8.72 L17.95,3.57 C18.49,2.93 19.45,2.86 20.08,3.41 C20.1,3.43 20.12,3.45 20.14,3.47 C20.72,4.02 20.77,4.93 20.24,5.54 L15.83,10.69 L22.59,10.17 C23.42,10.1 24.15,10.73 24.21,11.56 C24.27,12.39 23.65,13.12 22.82,13.18 L16.06,13.7 L21.21,18.11 C21.83,18.64 21.91,19.6 21.37,20.23 L21.37,20.23 Z" fill="#008988"></path>
                        <path d="M21.37,20.23 C20.83,20.87 19.87,20.94 19.24,20.39 L14.09,15.98 L14.61,22.75 C14.67,23.58 14.05,24.31 13.22,24.37 C12.8,24.4 12.42,24.26 12.12,24.01 C11.83,23.76 11.63,23.4 11.6,22.98 L11.08,16.21 L6.67,21.36 C6.15,21.97 5.24,22.06 4.61,21.58 L20.14,3.45 C20.72,4 20.77,4.91 20.24,5.52 L15.83,10.67 L22.59,10.15 C23.42,10.08 24.15,10.71 24.21,11.54 C24.27,12.37 23.65,13.1 22.82,13.16 L16.06,13.68 L21.21,18.09 C21.83,18.64 21.91,19.6 21.37,20.23 Z" fill="#007976"></path>
                        <path d="M17.88,17.24 C15.28,20.28 10.71,20.63 7.67,18.03 L7.65,18.01 C4.63,15.41 4.29,10.85 6.88,7.82 C9.47,4.79 14.03,4.44 17.06,7.02 L17.08,7.04 C20.12,9.64 20.48,14.21 17.88,17.24 L17.88,17.24 Z" fill="#009B6C"></path>
                        <path d="M17.88,17.24 C15.28,20.28 10.71,20.63 7.67,18.03 L7.65,18.01 L17.06,7.02 L17.08,7.04 C20.12,9.64 20.48,14.21 17.88,17.24 Z" fill="#008988"></path>
                        <path d="M15.14,14.89 C13.83,16.41 11.54,16.59 10.02,15.29 L10,15.27 C8.5,13.97 8.32,11.69 9.62,10.17 C10.92,8.66 13.2,8.47 14.72,9.76 L14.74,9.78 C16.26,11.08 16.44,13.37 15.14,14.89 L15.14,14.89 Z" fill="#52A92B"></path>
                        <path d="M15.14,14.89 C13.83,16.41 11.54,16.59 10.02,15.29 L10,15.27 L14.72,9.76 L14.74,9.78 C16.26,11.08 16.44,13.37 15.14,14.89 L15.14,14.89 Z" fill="#009B6C"></path>
                    </g>
                </g>
            </g>
        </g>
    </g>
</svg>