<svg id="Capa_1" data-name="Capa 1" xmlns="http://www.w3.org/2000/svg" xmlns:xlink="http://www.w3.org/1999/xlink" viewBox="0 0 7.21 23.23"><defs><style>.cls-1{fill:none;}.cls-2{clip-path:url(#clip-path);}.cls-3{clip-path:url(#clip-path-2);}.cls-4{fill:#4a4a4a;}.cls-5{clip-path:url(#clip-path-3);}.cls-6{clip-path:url(#clip-path-4);}</style><clipPath id="clip-path"><path class="cls-1" d="M1.87,22.44A3.34,3.34,0,0,1,.7,17.82a3.44,3.44,0,0,1,4.68-1.15,3.34,3.34,0,0,1,1.16,4.62A3.42,3.42,0,0,1,1.87,22.44Z"/></clipPath><clipPath id="clip-path-2"><rect class="cls-1" x="-4325.58" y="-2219.06" width="6581.92" height="7205.12"/></clipPath><clipPath id="clip-path-3"><path class="cls-1" d="M3.66,19.56,6,12,4.34,1A.57.57,0,0,0,3.69.52.58.58,0,0,0,3.21,1L1.71,12Z"/></clipPath><clipPath id="clip-path-4"><rect class="cls-1" x="-3651.6" y="-1905.84" width="6581.92" height="7205.12" transform="translate(-752.32 6.9) rotate(-25.05)"/></clipPath></defs><g class="cls-2"><g class="cls-3"><polygon class="cls-4" points="16.48 16.38 0.41 6.86 -9.24 22.73 6.83 32.25 16.48 16.38"/></g></g><g class="cls-5"><g class="cls-6"><polygon class="cls-4" points="11.98 -5.43 -4.17 -5.34 -4.29 25.5 11.86 25.41 11.98 -5.43"/></g></g></svg>