<svg version="1.1" id="Capa_1" xmlns="http://www.w3.org/2000/svg" x="0" y="0" viewBox="0 0 25 26" xml:space="preserve"><style>.st0{fill:#0093ff}</style><g id="v4."><g id="Desktop-HD-Copy-2" transform="translate(-1662 -3316)"><g id="Group-2" transform="translate(1663 3317)"><path class="st0" d="M11 13c-3.9 0-7-3.1-7-7s3.1-7 7-7 7 3.1 7 7-3.1 7-7 7zm0-12C8.2 1 6 3.2 6 6s2.2 5 5 5 5-2.2 5-5-2.2-5-5-5z" id="Oval"/><path class="st0" d="M24 25h-2c0-5.2-3.7-8-10.5-8C4.4 17 1 19.6 1 25h-2c0-4.6 2.2-10 12.5-10C19.3 15 24 18.7 24 25z" id="Path-2"/></g></g></g></svg>