<svg xmlns="http://www.w3.org/2000/svg" width="43.585" height="31.321" viewBox="0 0 43.585 31.321">
  <g id="Group_876" data-name="Group 876" transform="translate(-4278 -210)">
    <g id="hombre" transform="translate(4278 210)">
      <path id="Path_236" data-name="Path 236" d="M106.127,35.2v2.561a.522.522,0,0,1-.522.522H86.554a.522.522,0,0,1-.522-.522V35.2A4.866,4.866,0,0,1,90.9,30.335,2.7,2.7,0,0,0,93.166,29.1a3.067,3.067,0,0,0,.434-1.912l.01-.024a6.46,6.46,0,0,1-3.99-5.97v-.2a1.609,1.609,0,0,1-1.631-1.6V16.681a9.031,9.031,0,0,1,2.427-6.592c2.8-2.7,7.228-2.475,10.438-1.033a.131.131,0,0,1,0,.24l-.837.344a.131.131,0,0,0,.036.251l.406.044a6.586,6.586,0,0,1,4.875,3.024.14.14,0,0,1-.017.161,3.948,3.948,0,0,0-1.078,2.712v3.56a1.6,1.6,0,0,1-1.6,1.6h-.1v.2a6.46,6.46,0,0,1-3.99,5.97l.01.024a3.066,3.066,0,0,0,.434,1.912,2.7,2.7,0,0,0,2.268,1.231A4.866,4.866,0,0,1,106.127,35.2Z" transform="translate(-85.51 -7.484)" fill="#ffdfba"/>
      <path id="Path_237" data-name="Path 237" d="M106.127,337.469v2.561a.522.522,0,0,1-.522.522H86.554a.522.522,0,0,1-.522-.522v-2.561A4.866,4.866,0,0,1,90.9,332.6a2.7,2.7,0,0,0,2.268-1.23,4.479,4.479,0,0,0,5.826,0,2.7,2.7,0,0,0,2.268,1.23A4.866,4.866,0,0,1,106.127,337.469Z" transform="translate(-85.51 -309.753)" fill="#fe4f60"/>
      <path id="Path_238" data-name="Path 238" d="M133.333,12.961a.138.138,0,0,1-.017.161,3.95,3.95,0,0,0-1.078,2.712v3.56a1.6,1.6,0,0,1-1.7,1.6v-4.03a3.132,3.132,0,0,0-3.132-3.132h-6.655a3.132,3.132,0,0,0-3.132,3.132v4.03a1.609,1.609,0,0,1-1.631-1.6V16.682a9.031,9.031,0,0,1,2.427-6.592c2.8-2.7,7.228-2.475,10.438-1.033a.131.131,0,0,1,0,.24l-.837.345a.13.13,0,0,0,.036.25l.407.044A6.583,6.583,0,0,1,133.333,12.961Z" transform="translate(-113.514 -7.485)" fill="#42434d"/>
      <path id="Path_239" data-name="Path 239" d="M153.95,104.659a6.461,6.461,0,1,1-12.918-.2v-4.03a3.132,3.132,0,0,1,3.132-3.132h6.655a3.132,3.132,0,0,1,3.132,3.132Z" transform="translate(-136.922 -90.945)" fill="#ffebd2"/>
      <path id="Path_240" data-name="Path 240" d="M146.029,123.461a1.031,1.031,0,0,1-.938,1.827,6.46,6.46,0,0,1-4.059-6v-4.234a3.118,3.118,0,0,1,.55-1.773.771.771,0,0,1,1.408.468v4.234A6.412,6.412,0,0,0,146.029,123.461Z" transform="translate(-136.922 -105.577)" fill="#fff3e4"/>
      <path id="Path_241" data-name="Path 241" d="M206.008,302.788a6.477,6.477,0,0,1-5.106,0,4.043,4.043,0,0,0,.074-1.071l.01-.024a6.472,6.472,0,0,0,4.939,0l.01.024A4.042,4.042,0,0,0,206.008,302.788Z" transform="translate(-192.885 -282.009)" fill="#ffd6a6"/>
      <path id="Path_242" data-name="Path 242" d="M93.526,334.18a2.655,2.655,0,0,1-.777.12,4.879,4.879,0,0,0-4.891,4.849v.49a.913.913,0,0,1-.913.913h-.391a.522.522,0,0,1-.522-.522v-2.561A4.866,4.866,0,0,1,90.9,332.6a2.7,2.7,0,0,0,2.268-1.23,4.518,4.518,0,0,0,.621.445A1.3,1.3,0,0,1,93.526,334.18Z" transform="translate(-85.509 -309.753)" fill="#ff6d7a"/>
      <path id="Path_243" data-name="Path 243" d="M266.264,334.18a2.655,2.655,0,0,0,.777.12,4.879,4.879,0,0,1,4.891,4.849v.49a.913.913,0,0,0,.913.913h.391a.522.522,0,0,0,.522-.522v-2.561a4.866,4.866,0,0,0-4.866-4.865,2.7,2.7,0,0,1-2.268-1.23,4.518,4.518,0,0,1-.621.445A1.3,1.3,0,0,0,266.264,334.18Z" transform="translate(-253.142 -309.753)" fill="#e84857"/>
      <path id="Path_244" data-name="Path 244" d="M128.854,9.3c-.767.316-.877.385-1.142.344-4.285-.664-8.044,1.109-9.321,5.271h0a3.116,3.116,0,0,0-.766,2.051v2.448a.816.816,0,1,1-1.631-.019V16.682a9.031,9.031,0,0,1,2.427-6.592c2.8-2.7,7.228-2.475,10.438-1.033a.131.131,0,0,1,0,.24Z" transform="translate(-113.515 -7.485)" fill="#4d4e59"/>
      <path id="Path_245" data-name="Path 245" d="M99.172,27.716V30.8a.522.522,0,1,1-1.044,0V27.716a4.341,4.341,0,0,0-4.343-4.343,3.2,3.2,0,0,1-2.757-1.548.522.522,0,0,1,.892-.543,2.168,2.168,0,0,0,1.866,1.047A5.384,5.384,0,0,1,99.172,27.716Zm-9.108-5.232a.522.522,0,0,1-.4.621,5,5,0,0,1-3.883-.76,3.165,3.165,0,0,1-2.361,1.027,4.341,4.341,0,0,0-4.344,4.343V30.8a.522.522,0,1,1-1.044,0V27.716a5.384,5.384,0,0,1,5.387-5.387A2.176,2.176,0,0,0,85.6,20.154v-.137a6.992,6.992,0,0,1-3.975-6.044,2.13,2.13,0,0,1-1.636-2.063V9.2A9.562,9.562,0,0,1,82.577,2.23c2.987-2.879,7.776-2.7,11.3-1a.523.523,0,0,1,.11.869A7.045,7.045,0,0,1,98.3,5.2a.577.577,0,0,1,.12.41.528.528,0,0,1-.15.331,3.408,3.408,0,0,0-.986,2.407v3.56a.522.522,0,1,1-1.044,0V8.348A4.443,4.443,0,0,1,97.25,5.511,6.029,6.029,0,0,0,92.922,2.97L92,2.872a.522.522,0,0,1-.143-1l.417-.172C86.845-.2,81.034,1.909,81.034,9.2v2.712a1.078,1.078,0,0,0,.587.955V9.48a3.658,3.658,0,0,1,3.654-3.654H91.93A3.658,3.658,0,0,1,95.584,9.48v4.274a6.991,6.991,0,0,1-8.95,6.658,3.191,3.191,0,0,1-.273,1.066,3.953,3.953,0,0,0,3.081.608A.522.522,0,0,1,90.064,22.484ZM88.6,19.651a5.944,5.944,0,0,0,5.937-5.937V9.48a2.613,2.613,0,0,0-2.61-2.61H85.275a2.613,2.613,0,0,0-2.61,2.61v4.234A5.944,5.944,0,0,0,88.6,19.651Zm5.285,9H92.321a.522.522,0,0,0,0,1.044h1.566a.522.522,0,0,0,0-1.044Z" transform="translate(-78.033 0)"/>
    </g>
    <g id="mujer" transform="translate(4299.792 210)">
      <path id="Path_246" data-name="Path 246" d="M101.419,35.19v2.561a.522.522,0,0,1-.522.522H81.845a.522.522,0,0,1-.522-.522V35.19a4.867,4.867,0,0,1,2.855-4.432,7.63,7.63,0,0,1-2.5-2.862,6.9,6.9,0,0,1,.472-6.823,6.711,6.711,0,0,0,1.126-3.722V14.524A6.524,6.524,0,0,1,89.805,8h3.132a6.524,6.524,0,0,1,6.524,6.524c0,2.994-.073,3.58.288,4.771.509,1.683,1.182,1.892,1.7,3.6a6.9,6.9,0,0,1-2.308,7.4l-.578.46A4.867,4.867,0,0,1,101.419,35.19Z" transform="translate(-80.474 -7.478)" fill="#ffdfba"/>
      <path id="Path_247" data-name="Path 247" d="M106.1,351.567v2.561a.522.522,0,0,1-.522.522H86.523a.522.522,0,0,1-.522-.522v-2.561a4.865,4.865,0,0,1,4.865-4.865,2.7,2.7,0,0,0,1.121-.242L92,346.5l3.726,2.884a.522.522,0,0,0,.639,0l3.726-2.884.016-.035a2.7,2.7,0,0,0,1.121.242A4.865,4.865,0,0,1,106.1,351.567Z" transform="translate(-85.152 -323.855)" fill="#ffaa64"/>
      <path id="Path_248" data-name="Path 248" d="M153.425,121.394a.522.522,0,0,1,.494.521v3.124a6.459,6.459,0,1,1-12.918,0V121.96a.521.521,0,0,1,.567-.52,13.5,13.5,0,0,0,8.8-2.251.52.52,0,0,1,.793.291A2.435,2.435,0,0,0,153.425,121.394Z" transform="translate(-136.563 -111.33)" fill="#ffebd2"/>
      <path id="Path_249" data-name="Path 249" d="M99.15,30.3l-.578.46a4.853,4.853,0,0,0-2.01-.433,2.7,2.7,0,0,1-2.7-2.7v-.446l-.01-.024a6.46,6.46,0,0,0,3.99-5.97V18.064a.522.522,0,0,0-.494-.521,2.434,2.434,0,0,1-2.262-1.913.52.52,0,0,0-.793-.291,13.5,13.5,0,0,1-8.8,2.251.521.521,0,0,0-.567.52v3.079a6.46,6.46,0,0,0,3.99,5.97l-.01.024v.446a2.7,2.7,0,0,1-2.7,2.7,4.853,4.853,0,0,0-2.01.433l-.578-.46a6.9,6.9,0,0,1-1.446-9.225,6.711,6.711,0,0,0,1.126-3.722V14.524A6.524,6.524,0,0,1,89.814,8h3.132a6.524,6.524,0,0,1,6.524,6.524v2.827a6.714,6.714,0,0,0,1.126,3.722A6.9,6.9,0,0,1,99.15,30.3Z" transform="translate(-80.483 -7.478)" fill="#42434d"/>
      <path id="Path_250" data-name="Path 250" d="M205.978,302.725a6.477,6.477,0,0,1-5.106,0,4.043,4.043,0,0,0,.074-1.071l.01-.024a6.472,6.472,0,0,0,4.939,0l.01.024A4.04,4.04,0,0,0,205.978,302.725Z" transform="translate(-192.528 -281.95)" fill="#ffd6a6"/>
      <path id="Path_251" data-name="Path 251" d="M95.888,8.7a.681.681,0,0,1-.367,1.285q-.308-.029-.623-.029H91.766a6.524,6.524,0,0,0-6.524,6.524v.794c0,.469-.326.454-.326.833,0,3.446.014,3.228-.037,3.377-.512,1.506-1.127,1.724-1.625,3.371A6.9,6.9,0,0,0,83,27.576a.681.681,0,0,1-1.31.32,6.9,6.9,0,0,1,.472-6.823,6.711,6.711,0,0,0,1.126-3.722V14.524A6.524,6.524,0,0,1,89.809,8h3.132a6.5,6.5,0,0,1,2.947.7Z" transform="translate(-80.478 -7.478)" fill="#4d4e59"/>
      <path id="Path_252" data-name="Path 252" d="M146.223,162.864a1,1,0,0,1-.875,1.773,6.418,6.418,0,0,1-4.346-6.1v-3.079a.522.522,0,0,1,.567-.52c.25.023.525.041.821.05a.994.994,0,0,1,.961,1v1.51A6.436,6.436,0,0,0,146.223,162.864Z" transform="translate(-136.564 -144.828)" fill="#fff3e4"/>
      <path id="Path_253" data-name="Path 253" d="M93.081,347.328a.415.415,0,0,1-.246.744,4.864,4.864,0,0,0-4.876,4.865v1.713H86.524a.522.522,0,0,1-.522-.522v-2.562a4.865,4.865,0,0,1,4.865-4.865,2.7,2.7,0,0,0,1.121-.242L92,346.5Z" transform="translate(-85.153 -323.856)" fill="#ffbd7b"/>
      <path id="Path_254" data-name="Path 254" d="M283.189,347.328a.415.415,0,0,0,.246.744,4.864,4.864,0,0,1,4.876,4.865v1.713h1.435a.522.522,0,0,0,.522-.522v-2.562A4.865,4.865,0,0,0,285.4,346.7a2.7,2.7,0,0,1-1.121-.242l-.016.035Z" transform="translate(-269.323 -323.856)" fill="#faa157"/>
      <path id="Path_255" data-name="Path 255" d="M94.453,27.712V30.8a.522.522,0,1,1-1.044,0V27.712a4.341,4.341,0,0,0-4.343-4.343,3.2,3.2,0,0,1-2.757-1.548.522.522,0,0,1,.892-.543,2.168,2.168,0,0,0,1.866,1.047A5.384,5.384,0,0,1,94.453,27.712ZM85.745,23.67l-1.861,1.441-3.165-2.45a3.2,3.2,0,0,0,1.2-2.254,6.982,6.982,0,0,0,8.95-6.7c0-.041,0-3.654,0-3.695a.522.522,0,0,0-.52-.489,2.148,2.148,0,0,1-1.362-.252,2.375,2.375,0,0,1-.987-1.9.522.522,0,0,0-.824-.429,16.821,16.821,0,0,1-7.4,2.937.522.522,0,0,0,.072,1.039,17.173,17.173,0,0,0,3.7-.906,17.9,17.9,0,0,0,3.541-1.751,2.948,2.948,0,0,0,2.74,2.319v3.125a5.937,5.937,0,0,1-11.874,0V10.048a.522.522,0,1,0-1.044,0v3.662a6.99,6.99,0,0,0,3.98,6.3v.138A2.176,2.176,0,0,1,78.7,22.325a5.385,5.385,0,0,0-1.926.355l-.337-.268A6.375,6.375,0,0,1,75.1,13.884a7.211,7.211,0,0,0,1.213-4.01V7.047a6.009,6.009,0,0,1,6-6H85.45a6.009,6.009,0,0,1,6,6V9.874a7.174,7.174,0,0,0,1.208,4,6.376,6.376,0,0,1-.051,7.165.522.522,0,1,0,.859.592,7.419,7.419,0,0,0,.059-8.338A6.134,6.134,0,0,1,92.5,9.874V7.046A7.054,7.054,0,0,0,85.45,0H82.318a7.055,7.055,0,0,0-7.046,7.047V9.874a6.17,6.17,0,0,1-1.038,3.432,7.417,7.417,0,0,0,1.522,9.9,5.372,5.372,0,0,0-2.441,4.511V30.8a.522.522,0,0,0,1.044,0V27.712A4.341,4.341,0,0,1,78.7,23.369a3.236,3.236,0,0,0,1.015-.163l3.847,2.978a.522.522,0,0,0,.639,0L86.384,24.5a.522.522,0,1,0-.639-.825Z" transform="translate(-72.987 0)"/>
    </g>
  </g>
</svg>
