<?xml version="1.0" encoding="UTF-8"?>
<svg width="512px" height="512px" viewBox="0 0 512 512" version="1.1" xmlns="http://www.w3.org/2000/svg" xmlns:xlink="http://www.w3.org/1999/xlink">
    <title>update-icon</title>
    <g id="Page-1" stroke="none" stroke-width="1" fill="none" fill-rule="evenodd">
        <g id="update-icon" fill="#FFFFFF" fill-rule="nonzero">
            <path d="M61.496094,279.609375 C60.507812,271.375 60,263.195312 60,256 C60,148.597656 148.597656,60 256,60 C306.097656,60 353,80.199219 387.5,111.699219 L370.199219,129.300781 C366.300781,133.199219 364.800781,138.898438 366.300781,144.300781 C368.101562,149.398438 372.300781,153.300781 377.699219,154.5 C380.71875,155.105469 479.914062,187.070312 473.597656,185.800781 C481.632812,188.476562 493.515625,179.90625 491.300781,168.101562 C490.691406,165.078125 468.730469,54.886719 470,61.199219 C468.800781,55.800781 464.898438,51.300781 459.5,49.800781 C454.402344,48.300781 448.699219,49.800781 444.800781,53.699219 L430.101562,68.097656 C384.800781,25.800781 322.597656,0 256,0 C115.300781,0 5.68434189e-14,115.300781 5.68434189e-14,256 L5.68434189e-14,256.597656 C5.68434189e-14,265.054688 0.386719,271.589844 0.835938,276.589844 C1.433594,283.214844 6.316406,288.640625 12.839844,289.949219 L43.65625,296.109375 C53.6875,298.117188 62.707031,289.707031 61.496094,279.609375 L61.496094,279.609375 Z" id="Path"></path>
            <path d="M499.25,222.027344 L468.34375,215.730469 C458.300781,213.683594 449.21875,222.101562 450.453125,232.246094 C451.523438,241 452,249.511719 452,256 C452,363.398438 363.402344,452 256,452 C205.902344,452 159,431.800781 124.5,400 L141.800781,382.699219 C145.699219,378.800781 147.199219,373.101562 145.699219,367.699219 C143.898438,362.597656 139.699219,358.699219 134.300781,357.5 C131.28125,356.890625 32.085938,324.929688 38.402344,326.199219 C33.300781,325.300781 28.199219,326.800781 24.902344,330.398438 C21.300781,333.699219 19.800781,339.097656 20.699219,343.898438 C21.308594,346.917969 43.273438,456.109375 42.003906,449.796875 C43.199219,455.199219 47.101562,459.699219 52.5,461.195312 C58.761719,462.765625 63.988281,460.867188 67.199219,457.296875 L81.601562,442.898438 C126.898438,485.199219 189.101562,512 256,512 C396.699219,512 512,396.699219 512,256 L512,255.097656 C512,248.449219 511.757812,241.921875 511.203125,235.433594 C510.632812,228.804688 505.769531,223.359375 499.25,222.027344 Z" id="Path"></path>
        </g>
    </g>
</svg>